<svg xmlns="http://www.w3.org/2000/svg" xmlns:xlink="http://www.w3.org/1999/xlink" width="1080" zoomAndPan="magnify" viewBox="0 0 810 809.999993" height="1080" preserveAspectRatio="xMidYMid meet" version="1.0"><defs><clipPath id="5a2e29dbce"><path d="M 314 167.71875 L 492 167.71875 L 492 203 L 314 203 Z M 314 167.71875 " clip-rule="nonzero"/></clipPath><clipPath id="625a323a96"><path d="M 224 462 L 588 462 L 588 580.96875 L 224 580.96875 Z M 224 462 " clip-rule="nonzero"/></clipPath></defs><g clip-path="url(#5a2e29dbce)"><path fill="#867dd9" d="M 323.5625 202.832031 C 319.960938 202.832031 317.257812 201.03125 315.457031 197.429688 C 313.65625 192.925781 315.457031 187.523438 319.960938 185.726562 C 346.972656 173.121094 375.785156 167.71875 405.5 167.71875 C 433.410156 167.71875 460.421875 173.121094 486.535156 183.925781 C 491.039062 185.726562 492.839844 191.125 491.039062 195.628906 C 489.238281 200.128906 483.835938 201.929688 479.332031 200.128906 C 455.921875 190.226562 430.710938 184.824219 405.5 184.824219 C 378.484375 184.824219 352.375 190.226562 327.164062 201.929688 C 326.261719 201.929688 325.363281 202.832031 323.5625 202.832031 Z M 323.5625 202.832031 " fill-opacity="1" fill-rule="nonzero"/></g><g clip-path="url(#625a323a96)"><path fill="#867dd9" d="M 405.5 580.96875 C 331.664062 580.96875 262.332031 540.453125 225.414062 476.53125 C 222.714844 472.027344 224.515625 466.625 229.015625 463.925781 C 233.519531 461.226562 238.921875 463.023438 241.621094 467.527344 C 274.9375 526.046875 337.96875 562.960938 405.5 562.960938 C 473.03125 562.960938 536.058594 526.046875 570.273438 467.527344 C 572.976562 463.023438 578.378906 462.125 582.878906 463.925781 C 587.382812 466.625 588.28125 472.027344 586.480469 476.53125 C 548.664062 540.453125 479.332031 580.96875 405.5 580.96875 Z M 405.5 580.96875 " fill-opacity="1" fill-rule="nonzero"/></g><path fill="#867dd9" d="M 391.992188 527.847656 C 391.09375 527.847656 389.292969 527.847656 388.390625 526.949219 C 384.789062 525.148438 382.988281 522.445312 382.988281 518.84375 L 382.988281 447.71875 L 247.925781 447.71875 C 213.710938 447.71875 186.699219 419.808594 186.699219 386.496094 L 186.699219 282.058594 C 186.699219 247.847656 214.609375 220.835938 247.925781 220.835938 L 562.171875 220.835938 C 596.386719 220.835938 623.398438 248.746094 623.398438 282.058594 L 623.398438 386.496094 C 623.398438 420.710938 595.484375 447.71875 562.171875 447.71875 L 475.730469 447.71875 L 398.296875 525.148438 C 397.394531 526.949219 394.695312 527.847656 391.992188 527.847656 Z M 248.828125 238.84375 C 224.515625 238.84375 205.605469 258.652344 205.605469 282.058594 L 205.605469 386.496094 C 205.605469 410.804688 225.414062 429.714844 248.828125 429.714844 L 392.894531 429.714844 C 398.296875 429.714844 401.898438 433.316406 401.898438 438.714844 L 401.898438 497.238281 L 466.726562 432.414062 C 468.527344 430.613281 470.328125 429.714844 473.03125 429.714844 L 563.070312 429.714844 C 587.382812 429.714844 606.289062 409.90625 606.289062 386.496094 L 606.289062 282.058594 C 606.289062 257.75 586.480469 238.84375 563.070312 238.84375 Z M 248.828125 238.84375 " fill-opacity="1" fill-rule="nonzero"/><path fill="#867dd9" d="M 509.945312 395.5 C 475.730469 395.5 448.71875 367.589844 448.71875 334.277344 C 448.71875 300.066406 476.632812 273.054688 509.945312 273.054688 C 544.164062 273.054688 571.175781 300.964844 571.175781 334.277344 C 571.175781 368.492188 544.164062 395.5 509.945312 395.5 Z M 509.945312 291.0625 C 485.636719 291.0625 466.726562 310.871094 466.726562 334.277344 C 466.726562 357.6875 486.535156 377.496094 509.945312 377.496094 C 534.257812 377.496094 553.167969 357.6875 553.167969 334.277344 C 553.167969 310.871094 534.257812 291.0625 509.945312 291.0625 Z M 509.945312 291.0625 " fill-opacity="1" fill-rule="nonzero"/><path fill="#867dd9" d="M 562.171875 395.5 C 559.46875 395.5 557.667969 394.601562 555.867188 392.800781 L 516.25 353.183594 C 512.648438 349.585938 512.648438 344.183594 516.25 340.582031 C 519.851562 336.980469 525.253906 336.980469 528.855469 340.582031 L 568.472656 380.195312 C 572.074219 383.796875 572.074219 389.199219 568.472656 392.800781 C 566.671875 394.601562 564.871094 395.5 562.171875 395.5 Z M 562.171875 395.5 " fill-opacity="1" fill-rule="nonzero"/><path fill="#867dd9" d="M 428.007812 393.699219 C 424.40625 393.699219 420.804688 391.898438 419.90625 388.296875 L 389.292969 306.367188 L 358.675781 388.296875 C 356.875 392.800781 351.472656 395.5 346.972656 393.699219 C 342.46875 391.898438 339.769531 386.496094 341.570312 381.996094 L 381.1875 277.558594 C 382.085938 273.957031 385.6875 272.15625 389.292969 272.15625 C 392.894531 272.15625 396.496094 274.855469 397.394531 277.558594 L 437.011719 381.996094 C 438.8125 386.496094 436.113281 391.898438 431.609375 393.699219 C 429.808594 393.699219 428.910156 393.699219 428.007812 393.699219 Z M 428.007812 393.699219 " fill-opacity="1" fill-rule="nonzero"/><path fill="#867dd9" d="M 414.503906 367.589844 L 362.277344 367.589844 C 356.875 367.589844 353.273438 363.988281 353.273438 358.585938 C 353.273438 353.183594 356.875 349.585938 362.277344 349.585938 L 414.503906 349.585938 C 419.90625 349.585938 423.507812 353.183594 423.507812 358.585938 C 423.507812 363.988281 419.90625 367.589844 414.503906 367.589844 Z M 414.503906 367.589844 " fill-opacity="1" fill-rule="nonzero"/><path fill="#867dd9" d="M 256.929688 395.5 C 251.527344 395.5 247.925781 391.898438 247.925781 386.496094 L 247.925781 280.257812 C 247.925781 274.855469 251.527344 271.253906 256.929688 271.253906 L 328.964844 271.253906 C 334.367188 271.253906 337.96875 274.855469 337.96875 280.257812 C 337.96875 285.660156 334.367188 289.261719 328.964844 289.261719 L 265.933594 289.261719 L 265.933594 387.398438 C 265.933594 391.898438 262.332031 395.5 256.929688 395.5 Z M 256.929688 395.5 " fill-opacity="1" fill-rule="nonzero"/><path fill="#867dd9" d="M 301.050781 343.28125 L 261.433594 343.28125 C 256.03125 343.28125 252.429688 339.679688 252.429688 334.277344 C 252.429688 328.875 256.03125 325.273438 261.433594 325.273438 L 301.050781 325.273438 C 306.453125 325.273438 310.054688 328.875 310.054688 334.277344 C 310.054688 339.679688 305.550781 343.28125 301.050781 343.28125 Z M 301.050781 343.28125 " fill-opacity="1" fill-rule="nonzero"/></svg>