<svg xmlns="http://www.w3.org/2000/svg" xmlns:xlink="http://www.w3.org/1999/xlink" width="100" zoomAndPan="magnify" viewBox="0 0 500 809.999993" height="95" preserveAspectRatio="xMidYMid meet" version="1.0"><defs><clipPath id="d66149fdae"><path d="M 147.273438 444 L 512 444 L 512 595.949219 L 147.273438 595.949219 Z M 147.273438 444 " clip-rule="nonzero"/></clipPath><clipPath id="af56772646"><path d="M 450 283 L 662.523438 283 L 662.523438 469 L 450 469 Z M 450 283 " clip-rule="nonzero"/></clipPath></defs><g clip-path="url(#d66149fdae)"><path fill="#867DD9" d="M 260.667969 444.296875 C 199.464844 460.296875 160.902344 499.113281 148.417969 553.613281 C 144.757812 569.160156 150.429688 573.730469 157.425781 575.878906 C 205.503906 590.691406 294.566406 595.949219 329.511719 595.949219 C 364.460938 595.949219 453.523438 590.691406 501.597656 575.878906 C 508.597656 573.730469 514.269531 569.160156 510.609375 553.613281 C 498.121094 499.113281 459.5625 460.296875 398.355469 444.296875 L 335.09375 497.238281 C 331.890625 499.9375 327.179688 499.9375 323.933594 497.238281 L 260.667969 444.296875 " fill-opacity="1" fill-rule="nonzero"/></g><path fill="#867DD9" d="M 329.511719 214 C 276.269531 214 233.40625 257.296875 233.40625 311.066406 L 233.40625 317.648438 C 233.40625 371.417969 276.269531 414.714844 329.511719 414.714844 C 382.710938 414.714844 425.621094 371.417969 425.621094 317.648438 L 425.621094 311.066406 C 425.621094 257.296875 382.710938 214 329.511719 214 " fill-opacity="1" fill-rule="nonzero"/><g clip-path="url(#af56772646)"><path fill="#867DD9" d="M 547.523438 363.414062 L 574.375 363.414062 C 579.132812 363.414062 582.976562 367.257812 582.976562 372.011719 L 582.976562 407.992188 L 592.628906 407.992188 L 592.628906 429.253906 L 547.523438 429.253906 L 547.523438 407.992188 L 557.222656 407.992188 L 557.222656 379.738281 L 547.523438 375.441406 Z M 570.074219 322.085938 C 578.722656 322.085938 585.675781 329.035156 585.675781 337.675781 C 585.675781 346.269531 578.722656 353.21875 570.074219 353.21875 C 561.476562 353.21875 554.523438 346.269531 554.523438 337.675781 C 554.523438 329.035156 561.476562 322.085938 570.074219 322.085938 Z M 570.074219 283.3125 C 519.027344 283.3125 477.675781 324.644531 477.675781 375.667969 C 477.675781 377.953125 477.765625 380.195312 477.949219 382.4375 L 450.640625 405.433594 L 450.640625 419.605469 L 488.882812 419.605469 C 504.984375 449.417969 536.179688 468.023438 570.074219 468.070312 C 621.171875 468.070312 662.523438 426.691406 662.523438 375.667969 C 662.523438 324.644531 621.171875 283.3125 570.074219 283.3125 " fill-opacity="1" fill-rule="nonzero"/></g></svg>