<svg xmlns="http://www.w3.org/2000/svg" xmlns:xlink="http://www.w3.org/1999/xlink" width="800" zoomAndPan="magnify" viewBox="0 0 600 599.999999" height="800" preserveAspectRatio="xMidYMid meet" version="1.0"><defs><clipPath id="id1"><path d="M 186 186.761719 L 419 186.761719 L 419 411 L 186 411 Z M 186 186.761719 " clip-rule="nonzero"/></clipPath></defs><g clip-path="url(#id1)"><path fill="#e9eaec" d="M 342.328125 186.984375 C 341.835938 186.992188 341.335938 187.015625 340.835938 187.054688 C 320.972656 190.484375 310.046875 211.492188 308.464844 230.019531 C 306.152344 246.828125 313.558594 268.4375 332.015625 272.203125 C 334.691406 272.714844 337.472656 272.480469 340.089844 271.769531 C 362.3125 264.316406 372.257812 237.992188 369.046875 216.1875 C 368.113281 202.105469 357.5 186.792969 342.324219 186.984375 Z M 258.105469 187.886719 C 245.753906 188.191406 236.132812 200.71875 234.175781 212.496094 C 230.050781 235.832031 240.664062 264.824219 264.96875 272.207031 C 267.246094 272.699219 269.601562 272.753906 271.898438 272.394531 C 288.328125 269.65625 295.289062 251.234375 294.601562 236.363281 C 294.105469 216.746094 283.917969 194.0625 263.546875 188.546875 C 261.6875 188.054688 259.871094 187.84375 258.105469 187.886719 Z M 396.148438 254.160156 C 374.78125 255.441406 360.128906 276.765625 358.042969 296.675781 C 355.214844 311.035156 362.867188 330.242188 379.253906 331.390625 C 402.097656 331.109375 417.679688 306.695312 418.328125 285.6875 C 419.773438 271.792969 411.589844 254.929688 396.148438 254.160156 Z M 209.121094 258.894531 C 200.03125 258.816406 191.089844 264.261719 188.117188 273.503906 C 180.191406 298.226562 196.109375 329.539062 222.289062 334.738281 C 233.21875 336.609375 242.816406 328.214844 245.527344 318.117188 C 251.269531 296.515625 239.476562 271.4375 219.515625 261.636719 C 216.265625 259.8125 212.675781 258.929688 209.121094 258.898438 Z M 304.914062 303.226562 C 287.089844 303.265625 268.988281 312.308594 257.449219 325.773438 C 244.984375 341.46875 234.777344 359.730469 230.78125 379.539062 C 225.929688 393.792969 236.925781 410.203125 252.164062 410.300781 C 270.496094 410.808594 286.25 398.21875 304.480469 397.285156 C 319.945312 394.925781 333.792969 402.972656 347.699219 408.238281 C 359.535156 413.300781 375.894531 411.363281 381.9375 398.617188 C 386.691406 385.628906 379.695312 371.78125 373.898438 360.246094 C 362.074219 341.523438 349.40625 321.847656 330.023438 310.160156 C 322.25 305.34375 313.617188 303.207031 304.914062 303.226562 Z M 304.914062 303.226562 " fill-opacity="1" fill-rule="nonzero"/></g></svg>